<svg id="SvgjsSvg1144" width="288" height="288" xmlns="http://www.w3.org/2000/svg" version="1.1" xmlns:xlink="http://www.w3.org/1999/xlink" xmlns:svgjs="http://svgjs.com/svgjs"><defs id="SvgjsDefs1145"></defs><g id="SvgjsG1146"><svg xmlns="http://www.w3.org/2000/svg" width="288" height="288" version="1.0" viewBox="0 0 110 110"><circle cx="55" cy="55" r="55" fill="#55d743" class="color32BEA6 svgShape"></circle><path fill="#ffffff" d="M55.002 87H87l-4-11a5.997 5.997 0 0 0-3.043-2.982L67 68l-2-1-10 8.003L45 67l-2 1-12.957 5.018A5.997 5.997 0 0 0 27 76l-4 11h31.998l.002.003.002-.003z" class="colorFFF svgShape"></path><path fill="#76828d" d="M75 81v-9.997l-5-2V78H40v-8.997l-5 2V81l-2 6.003h44z" class="color0484AB svgShape"></path><path fill="#4e5a64" d="M43 83h24v4H43z" class="color21B2D1 svgShape"></path><path fill="#f7b4b4" d="M57.655 67.997h-5.31a2.999 2.999 0 0 1-2.24-1.004L45 62.997v4.5s0 7.5 10 7.5 10-7.5 10-7.5v-4.5l-5.105 3.996a2.999 2.999 0 0 1-2.24 1.004z" class="colorF7B4B4 svgShape"></path><path fill="#fbc8c8" d="M50.105 66.996L45 63v4.5S45 75 55 75v-7h-2.655a2.999 2.999 0 0 1-2.24-1.004z" class="colorFBC8C8 svgShape"></path><path fill="#fbc8c8" d="M72 47.222C72 46.111 71 45 70 45s-1 1.111-1 1.111V45c-.004-2.144-.067-4.115-.332-5.877C65.103 40.558 59.438 41 55 41s-10.103-.442-13.668-1.877c-.265 1.762-.328 3.733-.332 5.877v7.997l4 10 5.105 3.996a2.999 2.999 0 0 0 2.24 1.004h5.31c.856 0 1.671-.365 2.24-1.004L65 62.997l3.207-8.017C71.042 54.776 72 50.476 72 47.222z" class="colorFBC8C8 svgShape"></path><path fill="#fbd7d7" d="M41 45v1.111S41 45 40 45s-2 1.111-2 2.222c0 3.253.958 7.554 3.793 7.758L45 62.997l5.105 3.996a2.999 2.999 0 0 0 2.24 1.004H55V41c-4.438 0-10.103-.442-13.668-1.877-.265 1.762-.328 3.733-.332 5.877z" class="colorFBD7D7 svgShape"></path><path fill="#f79392" d="M50 56.997h10s0 3-5 3-5-3-5-3z" class="colorF79392 svgShape"></path><path fill="#3e3e3f" d="M51.994 47.036a2 2 0 00-2-2h-.006c.001.021.006.041.006.062a2 2 0 01-1.994 2 1.996 1.996 0 003.994-.062zM61.987 47.036a2 2 0 00-2-2h-.006c.001.021.006.041.006.062a2 2 0 01-1.994 2 1.996 1.996 0 003.994-.062z" class="color3E3E3F svgShape"></path><path fill="#84462d" d="M47 57h8c0-4.548-6-3.79-8 0zM63 57h-8c0-4.548 6-3.79 8 0zM66.369 44.35C67.5 48.9 67 55.02 67 56h1l1-2c0-.84.554-6.44.837-10.137-1.091.18-2.252.344-3.468.487zM43.631 44.35a77.096 77.096 0 01-3.469-.487C40.446 47.56 41 53.16 41 54l1 2h1c0-.98-.5-7.1.631-11.65z" class="color84462D svgShape"></path><path fill="#f4d0a1" d="M80 40c0 2.209-11.193 5-25 5s-25-2.791-25-5 11.193-4 25-4 25 1.791 25 4z" class="colorF4D0A1 svgShape"></path><path fill="#f8e1c2" d="M69 35c.04-7.047-6.128-12-14-12s-14.04 4.953-14 12c.009 1.582 0 2 0 4 3.538 1.54 9.429 2 14 2s10.462-.46 14-2c0-2-.009-2.418 0-4z" class="colorF8E1C2 svgShape"></path><path fill="#f8e1c2" d="M30 40c0 2.209 11.193 5 25 5v-9c-13.807 0-25 1.791-25 4z" class="colorF8E1C2 svgShape"></path><path fill="#fcf1e2" d="M41 35c.009 1.582 0 2 0 4 3.538 1.54 9.429 2 14 2V23c-7.872 0-14.04 4.953-14 12z" class="colorFCF1E2 svgShape"></path><path fill="#4e5a64" d="M67 68l-2-2-10 9 7 5zM43 68l2-2 10 9-7 5z" class="colorE2E4E5 svgShape"></path></svg></g></svg>