<svg id="SvgjsSvg1085" width="288" height="288" xmlns="http://www.w3.org/2000/svg" version="1.1" xmlns:xlink="http://www.w3.org/1999/xlink" xmlns:svgjs="http://svgjs.com/svgjs"><defs id="SvgjsDefs1086"></defs><g id="SvgjsG1087"><svg xmlns="http://www.w3.org/2000/svg" width="288" height="288" viewBox="0 0 48 48"><g transform="translate(0 -1004.362)" fill="#55d743" class="color000 svgShape"><circle cx="37.045" cy="28.409" r="12.5" fill="#55d743" fill-rule="evenodd" transform="matrix(1.92 0 0 1.92 -47.127 973.817)" class="color50b748 svgShape"></circle><g transform="translate(8 -8)" fill="#55d743" class="color000 svgShape"><path fill="#4e5a64" fill-rule="evenodd" d="m 12.03312,1042.6308 1.16733,1.1674 c 5.61135,-2.3105 11.69507,-6.7623 14.91276,-13.108 l 0.36086,-0.6675 c 0.97893,-2.3065 1.52596,-4.8906 1.52593,-7.6605 l -6e-5,10e-5 c -2.76993,0 -5.3077,0.5778 -7.61417,1.5567 l -0.74665,0.3955 c -6.34575,3.2177 -10.7975,9.203 -13.10801,14.8143 l 1.16733,1.1674" class="coloree7581 svgShape"></path><path fill="#cfcfcf" fill-rule="evenodd" d="M8.82643 1038.4212c1.15623-2.6683 2.60108-4.9589 4.14774-6.9763-3.73552-1.8677-9.19013 1.9084-11.97353 8.4224 4.18422-3.2455 6.56512-3.6408 7.82579-1.4461zM13.89854 1043.4933c2.6682-1.1563 5.00291-2.5571 7.02018-4.1037 1.86781 3.7355-1.90822 9.19-8.42233 11.9735 3.24551-4.1843 3.59681-6.6092 1.40215-7.8698zM29.99994 1022.3623c-2.76993 0-5.3077.5778-7.61417 1.5567l6.0883 6.1037c.97893-2.3065 1.52596-4.8906 1.52593-7.6605zM17.1234 1035.2878c.42837 3.7054-3.75887 6.4882-10.37531 10.3268l0 0c3.83364-6.6214 6.62166-10.8034 10.32732-10.3748l.0396.024z" class="colorf0f4f7 svgShape"></path><path fill="#1fff00" d="m 746.10443,714.38245 a 1.9714307,1.9714307 0 0 1 -1.97143,1.97143 1.9714307,1.9714307 0 0 1 -1.97144,-1.97143 1.9714307,1.9714307 0 0 1 1.97144,-1.97143 1.9714307,1.9714307 0 0 1 1.97143,1.97143 z" transform="rotate(45)" class="color78c8f0 svgShape"></path><path style="line-height:normal;text-indent:0;text-align:start;text-decoration-line:none;text-decoration-style:solid;text-decoration-color:#000;text-transform:none;block-progression:tb;isolation:auto;mix-blend-mode:normal" fill="#1fff00" fill-rule="evenodd" d="M7.32228 1042.6696l-3.9004 3.9024.47266.4746 2.06836-2.0684c.46609-.804.91819-1.5767 1.35938-2.3086zM2.94735 1047.0457l-.4737.4737.4737.4737.47371-.4737-.47371-.4737zM5.83985 1046.0481l-2.89257 2.8926.4746.4727 2.89258-2.8926c-.0125 0-.0252-.01-.0371-.016l-.0117-.01c-.0159-.01-.0315-.019-.0469-.029l.006.01c-.0186-.011-.0369-.024-.0547-.037-.0215-.015-.0423-.032-.0625-.049l-.0117-.012c-.008-.01-.0158-.014-.0234-.022l-.006 0-.002 0-.006-.01c-.007-.01-.0147-.01-.0215-.02l-.008-.01c-.008-.01-.0173-.015-.0254-.025-.0149-.016-.0292-.032-.043-.049l-.004-.01c-.0176-.022-.0313-.048-.0469-.072-.0236-.029-.0439-.061-.0605-.094-.003-.01-.007-.013-.01-.02zM2.47365 1049.4142l-.47371.4737.47371.4737.4737-.4737-.4737-.4737zM9.65626 1045.0739c-.73244.4417-1.50475.8946-2.30859 1.3614l-2.50586 2.5058.47461.4727zM4.36847 1049.4142l-.4737.4737.4737.4737.47371-.4737-.47371-.4737z" color="#000" font-family="sans-serif" font-weight="400" overflow="visible" class="color8fb6d7 svgShape"></path></g></g></svg></g></svg>