<svg id="SvgjsSvg1035" width="288" height="288" xmlns="http://www.w3.org/2000/svg" version="1.1" xmlns:xlink="http://www.w3.org/1999/xlink" xmlns:svgjs="http://svgjs.com/svgjs"><defs id="SvgjsDefs1036"></defs><g id="SvgjsG1037"><svg xmlns="http://www.w3.org/2000/svg" width="288" height="288" fill-rule="evenodd" clip-rule="evenodd" image-rendering="optimizeQuality" shape-rendering="geometricPrecision" text-rendering="geometricPrecision" viewBox="0 0 16583 16583"><circle cx="8292" cy="8292" r="8292" fill="#55d743" class="color00dcab svgShape"></circle><path fill="#55d743" d="M15084 13047c-1500,2138 -3983,3536 -6792,3536 -2810,0 -5293,-1398 -6793,-3536l13585 0z" class="color00c69a svgShape"></path><polygon fill="#f0f0f0" points="3197 5229 13386 5229 13386 11921 3197 11921" class="colorffc42e svgShape"></polygon><path fill="#cfcfcf" d="M3317 3287l9949 0c285,0 518,209 518,465l0 1477 -10985 0 0 -1477c0,-256 233,-465 518,-465z" class="colorf5f5f5 svgShape"></path><polygon fill="#cfcfcf" points="2582 13047 8879 13047 8879 11574 2582 11574" class="colorf5f5f5 svgShape"></polygon><polygon fill="#ffffff" points="14001 13047 12107 13047 12107 11574 14001 11574" class="colorfff svgShape"></polygon><polygon fill="#f2eaea" points="3197 6516 13386 6516 13386 9629 3197 7438" class="colorf2b22e svgShape"></polygon><polygon fill="#ffffff" points="8879 6827 12107 6827 12107 11921 8879 11921" class="colorfff svgShape"></polygon><polygon fill="#ffffff" points="8879 6827 12107 6827 12107 9354 8879 8660" class="colore3e7f2 svgShape"></polygon><polygon fill="#4e5a64" points="9291 7296 11695 7296 11695 11451 9291 11451" class="color73ccff svgShape"></polygon><polygon fill="#58666e" points="9291 7296 11695 7296 11695 9265 9291 8748" class="color53b4ed svgShape"></polygon><polygon fill="#ffffff" points="3882 7570 7778 7570 7778 10575 3882 10575" class="colorfff svgShape"></polygon><polygon fill="#ffffff" points="7778 7570 7778 8411 3882 7574" class="colore3e7f2 svgShape"></polygon><polygon fill="#4e5a64" points="4214 7850 7446 7850 7446 10295 4214 10295" class="color73ccff svgShape"></polygon><polygon fill="#58666e" points="5167 7850 7446 7850 7446 8360" class="color53b4ed svgShape"></polygon><path fill="#e9ebee" d="M6297 6468l1330 0c0,1157 -1330,1157 -1330,0z" class="colore9ebee svgShape"></path><polygon fill="#58666e" points="4214 9365 7446 9365 7446 9221 4214 9221" class="color53b4ed svgShape"></polygon><path fill="#17cf00" d="M6297 6468l-1330 0c0,1157 1330,1157 1330,0z" class="colorf45e70 svgShape"></path><polygon fill="#ffffff" points="3882 8924 7778 8924 7778 9221 3882 9221" class="colorfff svgShape"></polygon><path fill="#17cf00" d="M2335 6468l1302 0c0,1140 -1291,1157 -1328,49l26 -49z" class="colorf45e70 svgShape"></path><polygon fill="#ffffff" points="6487 5229 7627 5229 7627 6516 6297 6516" class="colorfff svgShape"></polygon><path fill="#17cf00" d="M8956 6468l-1329 0c0,1157 1329,1157 1329,0z" class="colorf45e70 svgShape"></path><polygon fill="#1fff00" points="8956 5229 7627 5229 7627 6516 8956 6516" class="colorff8795 svgShape"></polygon><path fill="#e9ebee" d="M3637 6468l1330 0c0,1157 -1330,1157 -1330,0z" class="colore9ebee svgShape"></path><polygon fill="#1fff00" points="5347 5229 6487 5229 6297 6516 4967 6516" class="colorff8795 svgShape"></polygon><polygon fill="#ffffff" points="4207 5229 5347 5229 4967 6516 3637 6516" class="colorfff svgShape"></polygon><path fill="#17cf00" d="M10286 6468l1330 0c0,1157 -1330,1157 -1330,0z" class="colorf45e70 svgShape"></path><polygon fill="#1fff00" points="3068 5229 4207 5229 3637 6516 2308 6516" class="colorff8795 svgShape"></polygon><path fill="#17cf00" d="M14248 6468l-1302 0c0,1142 1295,1159 1329,48l-27 -48z" class="colorf45e70 svgShape"></path><path fill="#e9ebee" d="M10286 6468l-1330 0c0 1157 1330 1157 1330 0zM12946 6468l-1330 0c0 1157 1330 1157 1330 0z" class="colore9ebee svgShape"></path><polygon fill="#ffffff" points="10096 5229 8956 5229 8956 6516 10286 6516" class="colorfff svgShape"></polygon><polygon fill="#1fff00" points="11236 5229 10096 5229 10286 6516 11616 6516" class="colorff8795 svgShape"></polygon><polygon fill="#ffffff" points="12376 5229 11236 5229 11616 6516 12946 6516" class="colorfff svgShape"></polygon><polygon fill="#1fff00" points="13515 5229 12376 5229 12946 6516 14275 6516" class="colorff8795 svgShape"></polygon><polygon fill="#ffffff" points="2799 5062 13784 5062 13784 5229 2799 5229" class="colore3e7f2 svgShape"></polygon><polygon fill="#58666e" points="9291 9366 11695 9366 11695 9222 9291 9222" class="color53b4ed svgShape"></polygon><polygon fill="#ffffff" points="9291 8925 11695 8925 11695 9222 9291 9222" class="colorfff svgShape"></polygon><polygon fill="#ffffff" points="10112 8925 11695 8925 11695 9222 11494 9222" class="colore3e7f2 svgShape"></polygon><polygon fill="#cccccc" points="8879 12207 12107 12207 12107 12487 8879 12487" class="colorccc svgShape"></polygon><polygon fill="#cccccc" points="8879 12767 12107 12767 12107 13047 8879 13047" class="colorccc svgShape"></polygon><polygon fill="#ffffff" points="2582 13047 8879 13047 8879 12847 2582 12847" class="colore3e7f2 svgShape"></polygon><polygon fill="#ffffff" points="12107 13047 14001 13047 14001 12847 12107 12847" class="colore3e7f2 svgShape"></polygon><polygon fill="#ffffff" points="8879 12230 12107 12230 12107 11921 8879 11921" class="colore3e7f2 svgShape"></polygon><polygon fill="#ffffff" points="8879 12797 12107 12797 12107 12487 8879 12487" class="colore3e7f2 svgShape"></polygon><polygon fill="#ffffff" points="8817 13047 8879 13047 8879 11574 8817 11574" class="colore3e7f2 svgShape"></polygon><polygon fill="#ffffff" points="12107 13047 12170 13047 12170 11574 12107 11574" class="colore3e7f2 svgShape"></polygon></svg></g></svg>